<svg xmlns="http://www.w3.org/2000/svg" width="900" height="675"><path d="M160.302 123.103c-2.859 1.099-7.376 3.956-10.038 6.349-18.389 16.534-14.498 45.93 7.513 56.756 5.984 2.943 7.596 3.291 15.208 3.287 7.096-.005 9.451-.444 14.135-2.636 7.901-3.697 13.325-8.986 17.12-16.696 2.876-5.84 3.256-7.567 3.223-14.642-.031-6.651-.527-9.095-2.905-14.312-3.599-7.895-11.32-15.228-19.099-18.138-7.298-2.731-18.007-2.717-25.157.032m391.571 66.581c-5.496 3.41-7.393 10.476-4.379 16.305 2.258 4.365 5.304 6.011 11.125 6.011 4.671 0 5.476-.344 8.277-3.535 3.555-4.048 4.155-9.531 1.587-14.498-2.858-5.526-11.158-7.667-16.61-4.283M356.634 251.52C334.283 257.183 320 276.022 320 299.839c0 13.11 4.159 23.978 12.71 33.215C337.8 338.552 349.812 346 353.588 346c.725 0 2.167 1.913 3.203 4.25 2.815 6.346 10.262 13.408 17.984 17.053 5.91 2.79 7.755 3.175 15.225 3.175s9.315-.385 15.225-3.175c8.088-3.818 14.625-10.233 18.432-18.086 2.421-4.995 2.776-6.919 2.807-15.235.033-8.752-.225-10.048-3.212-16.119-3.059-6.217-3.212-7.036-2.618-14.062 2.007-23.74-10.125-43.431-31.385-50.94-7.689-2.716-24.465-3.406-32.615-1.341m301.866-.459c-26.206 4.022-42.861 32.576-35.992 61.708 4.401 18.668 18.246 31.354 37.436 34.302 12.155 1.867 24.351-.334 33.297-6.008 4.471-2.836 4.675-3.153 3.578-5.561-.64-1.405-1.424-2.43-1.741-2.278-.318.152-3.719 1.851-7.557 3.776-6.767 3.394-7.329 3.5-18.5 3.5-10.876 0-11.897-.178-18.246-3.186-12.212-5.785-19.709-16.286-21.959-30.756-3.031-19.5 5.84-38.35 21.701-46.11 10.046-4.915 27.6-4.418 37.93 1.075l4.499 2.392 1.56-2.207c1.467-2.077 1.394-2.342-1.224-4.475-6.167-5.025-22.905-7.995-34.782-6.172m-488.25.615l-6.25.419V347h20.95l.275-16.25.275-16.25 11.5-.559c9.873-.48 12.238-.94 16.717-3.25 6.76-3.487 11.921-8.718 14.888-15.089 1.88-4.039 2.377-6.788 2.385-13.192.009-7.066-.384-8.88-3.105-14.324-3.666-7.336-9.474-12.079-17.872-14.592-5.657-1.694-27.052-2.672-39.763-1.818m77 .002l-7.25.41V347h21v-34l4.25.018 4.25.018 11.787 16.982L293.074 347h12.463c6.855 0 12.463-.231 12.463-.514 0-.282-6.078-8.72-13.506-18.75-13.402-18.095-13.489-18.248-11.291-19.736 5.355-3.627 7.876-6.46 10.496-11.796 2.484-5.058 2.797-6.78 2.764-15.204-.032-8.361-.365-10.131-2.771-14.759-3.181-6.117-8.747-10.555-16.106-12.841-5.27-1.637-26.101-2.526-40.336-1.722m316.856 1.509c-.49 1.272-9.715 22.702-20.499 47.622-10.784 24.92-19.607 45.507-19.607 45.75 0 .242 1.5.441 3.332.441h3.333l6.956-16.25 6.956-16.25h46.574l6.842 16 6.843 16 3.67.316c3.16.271 3.59.063 3.092-1.5-.318-.999-9.524-22.516-20.458-47.816-19.838-45.903-19.887-46.001-23.011-46.313-2.503-.251-3.309.15-4.023 2M436 299.5V347h7v-46h60v46h7v-95h-7v43h-60v-43h-7v47.5m282.24-.25l.26 47.25 3.25.313 3.25.314V252h-7.02l.26 47.25m34.337-24.749l-21.756 22.5 4.339 4.957c14.573 16.645 40.669 44.029 42.469 44.564 1.171.349 3.381.487 4.912.306 2.605-.307 1.314-1.893-20.38-25.017C749.423 308.233 739 296.761 739 296.32c0-.442 9.784-10.595 21.741-22.562L782.483 252h-4.075c-4.002 0-4.468.406-25.831 22.501m-194.858 9.282c-5.361 12.494-9.741 23.054-9.733 23.467.008.413 8.762.75 19.455.75 10.693 0 19.637-.337 19.877-.75.438-.754-17.826-44.125-19.147-45.467-.388-.395-5.092 9.505-10.452 22m-195.725-12.849c-7.552 2.298-13.682 7.827-16.998 15.334-2.444 5.534-2.918 15.938-1.015 22.281 1.433 4.775 7.468 13.451 9.358 13.451.725 0 2.392-2.29 3.703-5.089 3.196-6.824 12.27-15.136 19.461-17.826 3.934-1.472 7.913-2.085 13.535-2.085 7.663 0 7.962-.087 7.962-2.322 0-8.703-8.637-20.003-17.632-23.068-4.895-1.668-14.01-2.003-18.374-.676m-176.564 1.387c-.279.727-.377 5.786-.218 11.243l.288 9.921 5.162.82c10.188 1.618 17.191-2.463 18.009-10.493.594-5.843-2.209-10.312-7.369-11.745-5.513-1.531-15.247-1.375-15.872.254m76.237-.654c-.367.366-.667 5.316-.667 11V293h6.935c11.601 0 16.065-3.047 16.065-10.966 0-5.726-1.991-8.66-6.779-9.99-4.16-1.155-14.525-1.407-15.554-.377m444.408 104.42c-14.923 2.928-28.117 9.902-38.575 20.39-12.09 12.125-19.029 25.49-21.487 41.385-4.883 31.585 11.582 62.976 40.487 77.193 11.827 5.817 18.919 7.408 33 7.402 9.716-.005 13.427-.447 19.5-2.324 22.844-7.063 40.252-22.803 48.808-44.133 16.93-42.209-9.111-90.133-54.018-99.408-8.232-1.701-20.483-1.924-27.715-.505m39.425 40.325c-7.919 3.519-11.634 11.863-12.277 27.578-.957 23.35 5.798 35.573 19.459 35.214 9.629-.253 14.026-4.141 17.456-15.433 1.781-5.862 2.034-8.756 1.668-19.09-.471-13.319-2.342-19.496-7.553-24.937-4.299-4.489-12.765-5.994-18.753-3.332m-55.133 1.338c-.613.962-6.796 10.632-13.741 21.488-6.944 10.856-12.626 20.418-12.626 21.25 0 1.28 2.222 1.512 14.46 1.512h14.459l.291 8.25c.27 7.692.442 8.272 2.54 8.57 2.183.31 2.25.065 2.25-8.25V462h4.5c3.833 0 4.5-.296 4.5-2 0-1.701-.667-2-4.464-2h-4.464l-.286-9.75c-.264-8.988-.442-9.75-2.286-9.75s-2.022.762-2.286 9.75l-.286 9.75h-10.964c-11.836 0-12.502-.363-9.229-5.027C675.526 448.996 696 416.79 696 416.376c0-1.227-4.708-.08-5.633 1.374m57.029 2.632c-3.821 1.722-6.867 5.858-8.194 11.127-4.188 16.626-.683 38.123 6.851 42.018 3.785 1.958 10.412 1.869 13.54-.18 8.31-5.445 11.095-32.605 4.708-45.918-3.293-6.862-10.577-9.899-16.905-7.047M93.25 456.517c-24.593 5.342-43.292 28.456-43.235 53.443.056 24.969 17.063 47.187 40.993 53.555 7 1.863 20.923 1.879 27.861.032 12.946-3.445 24.322-11.515 31.411-22.28 11.285-17.137 12.762-36.379 4.223-55.038-1.326-2.899-2.469-5.599-2.539-6-.07-.401-3.578-4.104-7.796-8.229-14.537-14.218-32.124-19.566-50.918-15.483m622.341 18.106c-.978 2.55 1.935 5.166 4.178 3.751.952-.601 1.731-1.943 1.731-2.983 0-2.573-4.969-3.218-5.909-.768M95.922 495.274c-12.118 8.166-11.299 25.017 1.499 30.83 10.741 4.878 23.039-1.379 25.184-12.812 1.262-6.728-3.248-15.505-9.674-18.828-4.449-2.3-12.998-1.893-17.009.81" fill="undefined" fill-rule="evenodd"/></svg>